<?xml version="1.0" standalone="no"?>
<!DOCTYPE svg PUBLIC "-//W3C//DTD SVG 20010904//EN"
 "http://www.w3.org/TR/2001/REC-SVG-20010904/DTD/svg10.dtd">
<svg version="1.0" xmlns="http://www.w3.org/2000/svg"
 width="960.000000pt" height="938.000000pt" viewBox="0 0 960.000000 938.000000"
 preserveAspectRatio="xMidYMid meet">
<metadata>
Created by potrace 1.11, written by Peter Selinger 2001-2013
</metadata>
<g transform="translate(0.000000,938.000000) scale(0.100000,-0.100000)"
fill="#000000" stroke="none">
<path d="M4590 9284 c-634 -26 -1278 -192 -1840 -473 -424 -213 -761 -447
-1098 -765 -407 -382 -709 -786 -957 -1281 -269 -535 -412 -1033 -470 -1630
-20 -210 -20 -646 0 -865 77 -834 385 -1639 883 -2305 197 -264 496 -581 732
-776 728 -605 1533 -943 2495 -1051 160 -17 769 -17 920 1 456 54 792 133
1170 276 853 323 1605 910 2132 1665 681 976 952 2185 758 3385 -190 1171
-871 2265 -1845 2961 -674 482 -1402 756 -2229 839 -151 15 -500 25 -651 19z
m700 -68 c381 -49 695 -121 1008 -232 1273 -452 2279 -1440 2747 -2699 509
-1369 332 -2888 -478 -4100 -670 -1003 -1709 -1698 -2892 -1934 -1107 -221
-2261 -19 -3229 566 -870 526 -1532 1319 -1900 2275 -129 337 -217 699 -268
1103 -29 230 -31 750 -5 980 42 358 114 679 223 996 281 820 786 1536 1462
2077 670 535 1494 875 2342 966 217 24 221 24 555 21 208 -2 351 -9 435 -19z"/>
<path d="M4500 9174 c-19 -2 -89 -9 -155 -15 -984 -89 -1944 -535 -2668 -1239
-395 -384 -671 -763 -914 -1255 -226 -458 -363 -933 -430 -1485 -24 -205 -24
-743 0 -955 136 -1164 674 -2183 1547 -2929 1239 -1058 2947 -1360 4481 -790
1048 389 1932 1182 2435 2186 501 1000 611 2148 308 3227 -341 1215 -1194
2241 -2327 2800 -468 230 -940 369 -1482 437 -122 15 -703 28 -795 18z m545
-134 c1278 -76 2436 -696 3214 -1720 461 -606 756 -1336 846 -2085 44 -370 45
-675 4 -1035 -77 -684 -335 -1374 -725 -1943 -709 -1033 -1809 -1708 -3044
-1866 -248 -32 -642 -41 -896 -21 -1461 117 -2765 964 -3473 2257 -292 533
-485 1198 -516 1773 -3 58 -7 149 -10 203 -7 136 11 476 35 659 111 837 439
1580 989 2243 95 115 399 418 516 516 519 434 1113 739 1750 898 244 61 544
107 765 118 69 3 127 7 129 9 8 7 249 4 416 -6z"/>
<path d="M4816 8807 c-28 -20 -18 -61 17 -65 l27 -3 0 -87 0 -87 -51 84 c-28
47 -59 102 -70 123 l-20 39 -62 -3 c-62 -3 -62 -3 -65 -35 -2 -24 1 -33 17
-38 20 -6 21 -14 21 -128 0 -111 -2 -123 -20 -135 -22 -14 -26 -42 -8 -60 18
-18 143 -16 162 4 29 29 12 64 -31 64 -22 0 -23 3 -23 87 0 47 3 83 7 79 4 -4
39 -60 78 -124 l71 -117 39 0 40 0 -3 166 c-3 161 -3 166 17 172 26 6 30 61 5
71 -29 11 -130 6 -148 -7z"/>
<path d="M5097 8793 c-13 -13 -7 -51 11 -64 17 -13 17 -21 4 -136 -13 -111
-16 -122 -36 -125 -28 -4 -35 -53 -9 -66 23 -12 308 -46 326 -39 19 7 32 124
16 143 -24 30 -69 3 -69 -42 0 -25 -1 -25 -57 -19 -107 11 -103 9 -96 63 3 26
7 48 8 50 7 9 55 -12 55 -24 0 -17 34 -36 54 -28 15 6 32 93 24 130 -5 29 -54
31 -63 4 -4 -14 -12 -19 -22 -16 -8 3 -21 6 -29 6 -12 0 -13 8 -8 38 4 20 8
39 10 41 2 2 38 0 80 -4 l76 -7 -6 -29 c-9 -45 36 -78 63 -45 6 7 14 40 17 73
l7 61 -29 6 c-37 7 -276 36 -301 36 -11 0 -23 -3 -26 -7z"/>
<path d="M5615 8701 c-9 -30 5 -50 41 -57 19 -3 37 -10 39 -15 5 -7 -8 -67
-46 -210 l-9 -36 -39 10 c-44 12 -71 -1 -71 -34 0 -25 17 -32 147 -64 92 -22
116 -25 128 -15 30 25 11 70 -29 70 -47 0 -48 10 -17 135 17 64 32 119 34 121
2 2 20 -1 41 -7 44 -12 66 0 66 36 0 26 -10 30 -147 65 -102 25 -130 26 -138
1z"/>
<path d="M3760 8685 c-110 -29 -120 -34 -120 -54 0 -24 12 -38 35 -42 16 -3
25 -25 51 -124 30 -115 30 -121 12 -133 -22 -16 -23 -32 -4 -57 13 -18 15 -18
82 0 66 17 84 28 84 50 0 18 -17 36 -36 39 -12 2 -23 17 -30 43 -11 38 -11 42
9 47 20 5 80 -37 136 -98 27 -29 39 -31 94 -15 26 7 37 16 37 29 0 34 -12 50
-38 50 -17 0 -41 14 -68 41 l-42 41 24 35 c28 41 29 61 10 107 -30 71 -88 81
-236 41z"/>
<path d="M3455 8599 c-58 -24 -75 -36 -75 -55 0 -19 31 -46 45 -40 17 6 85
-165 85 -211 0 -39 -30 -63 -77 -63 -37 0 -48 17 -98 148 -21 57 -24 76 -15
87 6 8 10 24 8 37 -2 19 -9 23 -38 22 -52 -1 -130 -39 -130 -62 0 -22 16 -38
44 -43 14 -3 30 -30 58 -103 47 -122 69 -152 115 -165 65 -18 171 19 208 72
26 37 18 104 -24 214 -30 80 -36 103 -25 107 28 11 10 77 -20 75 -6 0 -33 -9
-61 -20z"/>
<path d="M6138 8570 c-97 -18 -172 -116 -172 -225 1 -71 19 -111 70 -153 39
-32 128 -62 186 -62 34 0 37 3 54 50 14 38 22 49 35 45 21 -7 41 18 37 46 -2
16 -20 28 -73 50 -89 36 -113 37 -121 4 -7 -27 9 -55 32 -55 18 0 24 -13 17
-38 -6 -26 -20 -27 -73 -6 -66 27 -84 81 -55 165 24 67 60 99 111 99 58 0 94
-30 94 -79 0 -40 14 -61 42 -61 20 0 27 12 54 88 18 52 18 54 0 67 -10 8 -24
11 -32 8 -8 -3 -22 1 -32 10 -46 40 -114 58 -174 47z"/>
<path d="M6512 8418 c-15 -15 -16 -55 -1 -60 7 -2 -13 -50 -47 -116 -52 -99
-62 -112 -85 -112 -25 0 -39 -16 -39 -44 0 -15 109 -76 134 -76 8 0 20 9 26
19 11 21 4 51 -11 51 -7 0 23 73 36 88 2 2 26 -8 53 -22 l51 -26 -24 -42 c-17
-29 -31 -43 -46 -43 -26 0 -45 -26 -36 -48 3 -9 34 -30 69 -48 l62 -31 18 22
c22 27 22 34 3 50 -12 10 -9 21 22 78 77 144 83 152 108 152 18 0 26 7 31 24
8 33 1 42 -56 71 -60 31 -86 31 -101 4 -9 -17 -8 -25 4 -37 14 -14 14 -18 0
-46 -8 -17 -17 -33 -19 -35 -4 -4 -94 48 -94 55 0 3 7 18 15 34 10 20 20 27
34 23 21 -5 53 31 45 52 -5 13 -114 75 -131 75 -5 0 -14 -5 -21 -12z"/>
<path d="M2928 8380 c-141 -42 -185 -197 -93 -330 34 -48 110 -90 165 -90 54
0 127 39 159 86 52 76 33 199 -44 278 -54 56 -121 76 -187 56z m90 -95 c27
-20 68 -89 77 -132 13 -65 -49 -126 -107 -104 -54 20 -107 105 -108 169 0 67
81 106 138 67z"/>
<path d="M4545 8204 c-280 -28 -419 -50 -615 -100 -958 -240 -1783 -890 -2243
-1764 -256 -486 -385 -981 -403 -1540 -26 -805 236 -1609 731 -2246 588 -755
1434 -1229 2390 -1340 301 -35 710 -20 1020 37 1038 190 1936 839 2445 1767
218 398 350 815 412 1302 20 158 16 650 -6 810 -81 587 -263 1071 -577 1535
-489 724 -1227 1239 -2072 1445 -278 68 -459 90 -777 94 -146 2 -283 2 -305 0z
m663 -78 c255 -34 611 -117 698 -164 10 -6 64 -27 119 -48 189 -70 655 -309
655 -336 0 -5 4 -7 9 -4 5 3 64 -35 132 -86 785 -579 1270 -1405 1396 -2378
21 -165 24 -635 5 -775 -24 -177 -45 -300 -52 -310 -4 -5 -13 -37 -20 -70 -6
-33 -28 -116 -47 -185 -19 -69 -36 -134 -38 -145 -9 -62 -119 -327 -211 -505
-166 -323 -368 -597 -638 -865 -489 -486 -1092 -805 -1776 -939 -391 -76 -836
-80 -1245 -10 -844 144 -1631 625 -2157 1320 -631 833 -847 1910 -588 2929
150 589 440 1106 867 1545 577 594 1312 950 2138 1035 179 18 580 13 753 -9z"/>
<path d="M4315 8048 c-315 -45 -676 -153 -967 -291 -1052 -498 -1770 -1495
-1913 -2657 -21 -174 -22 -650 0 -650 17 0 80 16 260 68 191 56 287 72 420 72
138 0 225 -16 470 -85 272 -76 291 -80 460 -79 168 1 204 7 470 84 225 64 314
80 449 80 139 0 236 -17 451 -79 260 -75 320 -85 480 -85 160 0 216 10 478 85
240 69 322 82 487 76 144 -5 208 -17 448 -87 226 -65 273 -73 432 -74 158 0
214 9 427 69 284 81 358 95 504 95 130 0 267 -24 448 -79 19 -6 37 -8 40 -5
10 10 14 222 6 359 l-7 132 -142 36 c-300 77 -457 72 -792 -27 -273 -80 -411
-101 -569 -85 -116 12 -170 23 -340 71 -315 90 -427 106 -594 89 -107 -11
-174 -27 -476 -109 -292 -80 -454 -76 -782 20 l-73 21 0 233 0 233 68 -20
c197 -58 283 -73 432 -73 164 0 227 11 464 80 218 64 329 84 460 84 140 0 229
-16 475 -84 271 -76 297 -80 456 -80 152 0 210 10 425 70 69 20 150 42 180 50
222 60 436 58 663 -5 37 -10 67 -17 67 -15 0 1 -16 58 -35 126 -46 162 -136
406 -152 412 -40 16 -198 28 -282 21 -129 -9 -176 -18 -376 -75 -281 -80 -357
-93 -520 -87 -140 4 -242 22 -385 66 -280 86 -442 111 -613 93 -101 -11 -157
-24 -482 -114 -103 -28 -160 -39 -259 -47 -147 -13 -259 3 -548 81 l-38 10 0
233 0 232 142 -39 c308 -83 451 -78 818 27 107 30 236 62 285 70 117 19 272
19 376 -1 84 -15 112 -22 349 -90 307 -87 470 -84 810 12 215 61 309 82 398
90 39 4 72 9 72 12 0 18 -237 334 -315 420 -10 11 -37 7 -151 -26 -194 -56
-301 -74 -429 -74 -136 1 -238 19 -442 78 -256 74 -329 87 -488 87 -155 0
-208 -10 -485 -89 -348 -100 -504 -103 -827 -13 l-113 31 0 233 0 233 48 -14
c348 -107 519 -110 848 -18 285 80 355 95 484 101 154 7 244 -7 494 -77 99
-27 214 -58 255 -67 78 -17 315 -26 381 -14 l35 6 -127 95 c-310 232 -686 422
-1034 524 l-91 27 -91 -20 c-50 -11 -162 -40 -249 -64 -389 -110 -530 -111
-885 -5 l-68 20 0 78 c0 44 -3 81 -7 83 -5 2 -35 0 -68 -5z m-1960 -1566 l28
-84 73 4 c41 3 78 2 84 -2 6 -4 -14 -23 -44 -44 -82 -56 -81 -55 -56 -133 12
-37 23 -74 26 -81 5 -15 -3 -11 -71 38 -27 20 -55 39 -61 43 -7 4 -38 -12 -70
-36 -88 -64 -85 -64 -68 -6 9 29 20 63 25 76 14 38 13 40 -56 90 -36 25 -64
48 -62 49 1 2 39 4 84 5 l82 2 27 84 c15 46 28 82 29 81 2 -2 15 -41 30 -86z
m1089 4 l27 -83 82 -2 c45 -1 83 -3 84 -5 2 -1 -26 -24 -62 -49 -69 -50 -70
-52 -56 -90 5 -13 16 -47 25 -76 17 -58 20 -58 -67 6 -66 48 -60 48 -146 -16
-30 -23 -56 -40 -57 -38 -2 1 8 36 22 77 13 41 24 79 24 85 -1 5 -31 31 -68
58 l-67 47 87 0 87 0 26 85 c15 47 28 85 30 85 1 0 15 -38 29 -84z m-545 2
c13 -40 29 -76 35 -81 6 -4 36 -7 66 -6 111 2 110 4 31 -52 -40 -28 -70 -56
-68 -63 21 -56 48 -148 46 -151 -2 -2 -35 19 -72 46 l-68 50 -69 -51 c-39 -27
-70 -46 -70 -42 0 5 11 42 25 82 14 40 25 74 25 75 0 1 -29 23 -66 49 -36 27
-63 51 -60 54 3 3 36 4 73 3 38 0 73 2 79 6 6 5 22 41 35 81 12 39 26 72 29
72 3 0 17 -33 29 -72z m1091 -3 c25 -81 33 -88 98 -85 20 1 52 2 71 1 l35 -1
-72 -51 c-40 -28 -72 -52 -72 -53 0 -1 11 -36 25 -76 14 -40 25 -77 25 -82 0
-4 -31 15 -70 43 l-70 51 -70 -51 c-38 -28 -70 -47 -70 -43 0 5 11 42 25 82
14 41 22 77 18 81 -5 3 -37 27 -72 53 l-63 46 33 1 c19 1 50 1 69 0 68 -3 75
3 100 84 13 41 26 75 30 75 4 0 17 -34 30 -75z m-1360 -637 l21 -67 87 -3 87
-3 -68 -48 c-37 -26 -67 -53 -67 -60 0 -7 11 -43 25 -81 13 -39 23 -71 21 -73
-2 -2 -34 19 -71 47 -41 29 -73 46 -79 41 -43 -32 -126 -91 -130 -91 -2 0 5
28 16 63 35 108 37 99 -38 153 l-69 49 87 3 87 3 27 81 c29 89 30 89 64 -14z
m542 12 l24 -75 87 -5 87 -5 -65 -48 c-36 -27 -65 -54 -65 -60 0 -7 9 -41 20
-75 27 -85 26 -89 -15 -58 -19 14 -50 37 -68 51 l-33 24 -69 -49 c-37 -28 -70
-49 -71 -47 -2 2 8 39 23 82 l26 79 -24 18 c-13 10 -46 33 -74 53 l-50 35 91
0 90 0 18 58 c26 80 36 105 41 100 2 -2 15 -37 27 -78z m548 3 l25 -78 89 -3
89 -3 -69 -50 c-38 -28 -70 -52 -71 -53 -1 -1 9 -37 23 -80 13 -43 23 -80 21
-82 -2 -2 -34 19 -71 46 l-67 49 -67 -49 c-37 -27 -68 -46 -70 -42 -1 4 9 41
23 82 14 40 21 76 17 79 -5 3 -37 26 -72 51 l-63 45 88 5 89 5 25 78 c14 42
28 77 31 77 3 0 16 -35 30 -77z"/>
<path d="M1895 4105 c-60 -12 -150 -35 -200 -50 -49 -15 -116 -34 -147 -42
-32 -9 -58 -21 -58 -27 0 -42 111 -419 129 -438 4 -4 54 6 111 22 160 46 251
60 385 60 144 0 226 -14 441 -76 403 -116 545 -121 869 -28 294 85 352 97 505
102 169 5 239 -6 472 -72 439 -125 538 -126 946 -10 266 76 335 87 507 81 133
-4 165 -8 285 -41 459 -124 536 -137 709 -118 95 11 191 34 541 130 86 23 113
26 275 26 136 0 196 -4 245 -16 36 -9 68 -14 72 -10 10 11 75 231 102 345 l23
102 -26 11 c-14 7 -80 24 -146 40 -100 23 -143 28 -260 28 -158 0 -215 -9
-464 -80 -267 -76 -280 -79 -461 -79 -182 0 -209 5 -478 81 -398 113 -524 111
-960 -16 -186 -54 -283 -70 -418 -70 -140 0 -234 17 -452 80 -396 114 -547
117 -882 18 -259 -76 -328 -90 -480 -95 -173 -6 -231 3 -505 81 -326 92 -472
105 -680 61z"/>
<path d="M1935 3155 c-38 -7 -85 -17 -102 -21 l-33 -9 58 -100 c31 -55 93
-154 138 -220 l80 -120 110 -12 c133 -15 215 -33 405 -88 227 -67 296 -79 449
-79 145 0 228 13 402 65 413 123 565 132 858 52 585 -159 612 -159 1130 -15
187 53 261 65 395 64 124 0 243 -21 432 -77 231 -69 335 -88 483 -88 154 -1
174 3 475 83 121 32 232 61 246 64 35 8 172 207 295 428 l42 77 -35 7 c-55 10
-238 -3 -338 -25 -49 -11 -162 -40 -249 -65 -352 -101 -506 -102 -848 -5 -253
72 -338 89 -459 96 -147 8 -257 -10 -516 -83 -239 -68 -328 -84 -466 -84 -127
0 -236 20 -458 84 -245 71 -305 81 -469 80 -162 0 -214 -10 -490 -89 -364
-104 -507 -103 -898 11 -287 84 -458 102 -637 69z"/>
<path d="M3850 2203 c-63 -6 -182 -34 -335 -78 -82 -23 -170 -47 -195 -53
-203 -49 -408 -43 -622 17 -38 10 -68 17 -68 16 0 -2 51 -41 113 -88 162 -122
360 -246 533 -333 l151 -76 144 40 c193 54 273 66 409 65 119 0 219 -17 395
-68 470 -133 571 -135 996 -11 332 96 486 104 749 41 56 -14 107 -25 113 -25
41 0 460 251 592 354 l39 31 -149 7 c-158 6 -166 8 -550 113 -257 69 -433 69
-690 0 -385 -105 -394 -107 -533 -112 -82 -4 -162 -1 -210 7 -76 12 -104 19
-393 98 -198 54 -341 70 -489 55z"/>
<path d="M6940 8185 c-7 -9 -10 -27 -7 -44 5 -24 -5 -45 -63 -128 -61 -88 -72
-100 -94 -96 -18 4 -27 -1 -36 -17 -15 -29 -4 -41 120 -125 88 -59 105 -67
147 -67 42 0 52 5 81 37 34 37 39 68 17 118 -6 14 -2 17 18 17 33 0 77 52 77
91 0 61 -27 90 -194 203 -45 30 -49 31 -66 11z"/>
<path d="M2109 7827 c-164 -137 -158 -129 -126 -175 34 -47 75 -92 87 -92 46
0 52 36 13 87 l-27 35 25 19 c13 10 27 18 30 16 3 -1 34 -36 69 -77 35 -41 70
-83 79 -93 14 -17 13 -20 -17 -43 -33 -27 -40 -52 -20 -72 22 -22 42 -12 133
63 105 88 113 99 89 126 -22 25 -29 24 -68 -6 l-33 -25 -83 97 -82 97 28 23
28 22 29 -34 c31 -38 57 -44 77 -20 17 21 2 49 -60 110 l-47 46 -124 -104z"/>
<path d="M7295 7851 c-163 -74 -195 -284 -58 -372 78 -49 168 -38 245 30 66
58 96 162 67 238 -5 15 -25 43 -42 61 -59 62 -136 78 -212 43z m150 -96 c34
-33 33 -79 -5 -139 -53 -82 -134 -103 -184 -47 -54 59 45 211 137 211 16 0 38
-10 52 -25z"/>
<path d="M7675 7597 c-13 -10 -16 -21 -11 -40 5 -23 -3 -34 -70 -94 -90 -81
-114 -117 -114 -170 0 -48 40 -109 97 -147 70 -48 115 -32 243 86 64 59 75 65
92 55 16 -10 22 -8 39 11 23 29 17 43 -46 101 -45 42 -47 42 -66 25 -13 -12
-19 -27 -16 -41 3 -18 -12 -39 -74 -98 -88 -83 -118 -93 -157 -52 -41 44 -30
73 60 158 69 64 85 75 99 66 14 -9 22 -7 38 7 12 11 21 24 21 30 0 12 -98 116
-109 116 -4 0 -15 -6 -26 -13z"/>
<path d="M1813 7534 c-37 -18 -183 -176 -183 -197 0 -22 25 -38 53 -35 19 2
45 -15 111 -75 72 -65 85 -82 80 -101 -6 -24 17 -56 40 -56 17 0 106 93 106
112 0 24 -27 41 -53 34 -18 -4 -31 2 -52 24 -26 27 -27 32 -14 45 14 14 26 14
113 -2 l98 -17 29 32 c34 38 37 67 9 82 -15 8 -25 7 -40 -3 -15 -10 -32 -11
-80 -3 l-60 10 0 46 c0 52 -18 83 -60 105 -36 19 -57 19 -97 -1z"/>
<path d="M8000 7205 c-6 -8 -9 -22 -6 -33 9 -26 -189 -169 -209 -152 -18 15
-51 5 -59 -17 -7 -18 58 -121 82 -131 23 -8 47 13 47 41 -1 17 10 32 33 48 32
22 35 22 47 6 11 -15 7 -32 -21 -109 l-34 -92 25 -38 c25 -38 47 -46 74 -29 9
6 12 19 8 40 -6 26 21 122 38 139 2 2 19 -1 38 -7 44 -15 97 4 123 43 31 48
15 102 -61 210 -70 99 -96 116 -125 81z"/>
<path d="M1480 7150 c-100 -60 -126 -192 -56 -283 50 -66 115 -100 189 -101
74 -1 119 23 163 85 62 89 25 218 -80 283 -65 41 -163 48 -216 16z m136 -83
c97 -57 128 -128 80 -183 -31 -37 -77 -37 -140 0 -82 48 -109 123 -61 171 27
28 84 33 121 12z"/>
<path d="M8288 6819 c-10 -5 -18 -21 -18 -34 0 -19 -18 -33 -107 -84 -69 -38
-111 -57 -117 -51 -15 15 -52 12 -66 -5 -9 -11 -5 -26 22 -77 29 -56 36 -63
63 -63 25 0 31 5 35 29 3 19 17 37 42 52 l37 24 26 -43 c14 -24 25 -48 25 -54
0 -5 -18 -18 -40 -28 -33 -15 -42 -16 -55 -5 -19 15 -65 -1 -65 -23 0 -21 61
-128 75 -134 22 -8 55 16 55 40 0 19 20 34 102 80 89 50 106 56 124 46 16 -8
27 -8 43 0 26 15 26 31 0 84 -26 51 -48 77 -65 77 -21 0 -45 -31 -39 -49 4
-12 -3 -22 -22 -32 -16 -7 -31 -15 -35 -17 -4 -2 -18 19 -32 46 l-25 50 32 15
c22 11 35 13 44 5 20 -16 63 -1 63 23 0 34 -60 140 -79 139 -3 0 -14 -5 -23
-11z"/>
<path d="M1253 6773 c-41 -23 -59 -48 -118 -156 -38 -71 -45 -90 -35 -102 14
-17 51 -20 66 -6 5 6 50 -14 117 -51 88 -50 107 -65 107 -84 0 -14 9 -28 21
-35 27 -14 44 3 89 89 32 60 32 63 15 82 -25 28 -42 25 -63 -9 -17 -28 -19
-28 -45 -15 -15 8 -27 17 -27 20 0 2 11 27 25 54 36 70 40 118 16 157 -40 64
-112 88 -168 56z"/>
<path d="M1025 6338 c-26 -20 -85 -133 -116 -220 -10 -30 -10 -40 0 -52 16
-19 35 -20 60 -4 29 18 235 -68 239 -100 4 -25 34 -45 55 -36 9 3 30 41 47 85
35 86 32 109 -17 109 -18 0 -27 -8 -35 -30 -6 -17 -15 -28 -22 -25 -6 3 -19 8
-29 11 -20 7 -20 7 7 103 23 80 3 136 -59 165 -47 23 -97 20 -130 -6z"/>
<path d="M8375 6338 c-120 -43 -176 -142 -145 -253 14 -51 63 -104 112 -121
136 -50 307 60 308 197 0 59 -47 138 -99 166 -48 25 -123 30 -176 11z m161
-98 c1 0 9 -15 18 -34 13 -27 14 -40 5 -65 -21 -60 -147 -110 -214 -85 -25 10
-47 62 -40 93 14 66 124 120 200 99 16 -4 31 -8 31 -8z"/>
<path d="M845 5938 c-27 -82 -36 -130 -25 -143 16 -20 57 -19 68 1 8 14 20 13
112 -13 81 -22 107 -34 123 -55 19 -26 19 -27 1 -65 -25 -49 -42 -51 -165 -18
-81 23 -99 31 -99 46 0 27 -46 47 -65 28 -17 -17 -46 -126 -38 -145 9 -24 46
-29 62 -7 15 19 17 19 116 -9 137 -38 178 -37 220 5 54 54 75 170 41 223 -22
32 -97 67 -198 90 -58 13 -78 22 -78 34 0 9 -5 21 -12 28 -16 16 -57 15 -63 0z"/>
<path d="M8525 5893 c-98 -30 -155 -99 -155 -189 0 -177 204 -255 358 -137 93
70 93 226 1 295 -66 49 -119 57 -204 31z m144 -98 c16 -8 34 -28 41 -45 28
-68 -37 -129 -147 -138 -48 -4 -55 -2 -83 26 -17 18 -30 41 -30 55 0 76 142
142 219 102z"/>
<path d="M8790 5436 c-5 -14 -14 -26 -19 -26 -6 0 -60 -7 -121 -15 -111 -16
-111 -16 -129 6 -18 23 -54 20 -64 -4 -6 -15 19 -178 34 -224 13 -40 65 -87
115 -103 87 -29 215 16 256 90 17 30 19 48 14 135 -8 134 -15 159 -49 163 -21
3 -29 -2 -37 -22z m12 -140 c7 -36 -14 -87 -45 -110 -20 -15 -43 -20 -86 -21
-70 0 -103 23 -119 85 l-9 38 86 12 c47 6 93 13 101 14 47 11 68 6 72 -18z"/>
<path d="M708 5413 c-8 -10 -9 -20 -2 -30 7 -11 4 -33 -9 -71 -25 -76 -16
-125 33 -174 29 -30 45 -38 73 -38 64 0 85 17 127 105 44 91 60 110 89 100 25
-8 35 -37 27 -79 -7 -37 -28 -60 -78 -84 -24 -12 -33 -24 -33 -42 0 -28 23
-37 101 -39 55 -1 71 12 59 50 -3 10 2 40 11 68 39 120 -3 217 -98 228 -66 8
-101 -14 -132 -84 -15 -32 -32 -69 -39 -82 -31 -62 -77 -48 -77 24 0 44 16 67
57 79 27 9 40 44 22 61 -21 20 -116 25 -131 8z"/>
<path d="M870 4420 l0 -41 -29 22 c-16 11 -37 19 -47 17 -24 -4 -31 -50 -10
-68 23 -18 20 -32 -6 -30 -41 4 -48 0 -48 -23 0 -30 18 -47 48 -47 13 0 22 -3
20 -7 -2 -5 -10 -20 -17 -35 -27 -54 12 -77 63 -37 l26 20 0 -29 c0 -61 61
-68 68 -8 2 15 6 26 10 24 60 -30 62 -31 76 -19 16 13 11 47 -12 74 -14 16
-12 17 26 17 38 0 42 3 42 24 0 29 -22 49 -55 49 -23 0 -24 1 -11 16 8 9 18
28 21 43 9 35 -14 47 -53 27 -15 -7 -30 -15 -34 -17 -5 -2 -8 12 -8 32 0 34
-2 36 -35 36 -34 0 -35 -1 -35 -40z"/>
<path d="M8660 4420 l0 -41 -29 22 c-55 41 -93 3 -51 -53 14 -19 17 -29 8 -27
-7 1 -26 1 -41 0 -25 -1 -28 -5 -25 -27 3 -26 14 -37 51 -48 16 -5 17 -7 2
-30 -20 -30 -12 -66 14 -66 10 0 30 9 45 21 l26 20 0 -29 c0 -59 63 -69 75
-12 6 28 8 29 28 15 52 -36 86 4 48 56 l-22 29 41 0 c40 0 41 1 38 33 -3 28
-7 32 -35 35 -37 4 -39 8 -18 36 35 47 4 82 -47 53 l-28 -16 0 34 c0 34 -1 35
-40 35 l-40 0 0 -40z"/>
<path d="M1105 3263 c-93 -41 -171 -76 -173 -78 -4 -4 117 -274 136 -303 23
-36 58 -38 118 -9 38 19 55 34 60 52 5 20 9 23 20 14 18 -14 69 -5 112 21 25
16 32 26 32 51 0 25 -93 253 -128 315 -5 8 -62 -12 -177 -63z m210 -137 c19
-43 35 -85 35 -93 0 -8 -16 -21 -36 -29 -48 -20 -52 -15 -108 111 l-44 100 46
21 47 21 12 -26 c7 -14 28 -61 48 -105z m-151 -43 c26 -58 45 -112 42 -120 -8
-20 -77 -47 -94 -37 -12 8 -102 197 -102 215 0 9 76 47 96 48 6 1 32 -47 58
-106z"/>
<path d="M8164 2966 c-18 -8 -45 -34 -61 -58 -39 -56 -133 -223 -133 -235 0
-6 51 -38 113 -72 61 -34 135 -74 164 -90 l51 -29 62 114 c94 173 102 218 54
293 -53 80 -165 114 -250 77z m132 -62 c19 -9 45 -30 59 -46 38 -45 33 -90
-21 -195 -26 -48 -48 -89 -49 -91 -4 -4 -45 17 -157 80 l-87 48 42 73 c52 90
65 108 97 130 31 21 72 22 116 1z"/>
<path d="M1535 2755 c-11 -7 -81 -53 -155 -101 -74 -48 -136 -89 -138 -90 -6
-3 22 -54 29 -54 5 0 34 16 66 36 l57 37 23 -29 c35 -43 38 -67 18 -174 l-18
-98 23 -36 c12 -21 24 -35 26 -33 2 2 8 39 14 83 19 137 16 132 50 85 36 -50
62 -53 123 -14 67 43 87 64 87 93 0 17 -30 73 -78 146 -114 175 -104 163 -127
149z m84 -176 c62 -98 63 -100 45 -121 -19 -21 -66 -48 -82 -48 -6 0 -40 46
-76 101 l-66 102 47 33 c27 18 53 33 58 33 6 0 39 -45 74 -100z"/>
<path d="M7786 2421 c-9 -9 -16 -22 -16 -27 1 -5 68 -60 150 -121 l149 -113
19 28 19 27 -139 105 c-172 129 -162 123 -182 101z"/>
<path d="M1783 2132 c-76 -73 -123 -125 -123 -137 0 -30 26 -64 133 -175 55
-57 104 -100 115 -100 24 0 65 32 186 147 l95 90 -24 23 -23 22 -89 -83 c-48
-46 -102 -96 -118 -111 l-31 -28 -93 100 -92 100 83 79 c46 43 98 91 116 106
17 15 32 32 32 39 0 12 -31 46 -41 46 -2 -1 -59 -54 -126 -118z"/>
<path d="M7462 2037 l-122 -122 135 -135 135 -135 22 23 22 22 -52 53 -52 53
39 38 39 38 108 5 c99 5 111 8 137 31 15 14 27 29 27 33 0 4 -12 6 -27 4 -16
-2 -64 -6 -107 -10 l-79 -6 31 36 c45 51 42 75 -21 140 -80 83 -86 81 -235
-68z m185 21 c18 -18 33 -38 33 -45 0 -7 -37 -52 -82 -99 l-82 -85 -48 48 -48
47 82 83 c45 46 89 83 97 83 8 0 30 -14 48 -32z"/>
<path d="M2362 1744 c-41 -29 -182 -225 -182 -254 0 -29 18 -48 122 -128 136
-105 159 -111 207 -57 36 42 36 39 14 72 l-17 26 -32 -39 -32 -38 -97 74 c-53
40 -98 77 -100 81 -4 6 138 204 153 213 4 2 53 -32 110 -74 l102 -78 -25 -30
c-31 -37 -31 -40 1 -53 21 -7 31 -6 44 6 30 27 43 70 30 94 -12 24 -224 186
-255 195 -12 3 -30 -1 -43 -10z"/>
<path d="M7055 1671 c-22 -10 -86 -52 -142 -93 l-102 -75 105 -144 c57 -79
109 -148 114 -153 10 -10 141 80 221 152 73 65 85 132 39 222 -23 45 -56 75
-102 95 -49 20 -84 19 -133 -4z m115 -56 c72 -37 103 -143 58 -200 -30 -39
-168 -139 -178 -129 -16 19 -141 196 -145 207 -3 7 30 35 73 64 112 76 140 85
192 58z"/>
<path d="M2859 1352 c-87 -161 -139 -260 -139 -265 0 -6 56 -39 194 -112 103
-55 110 -57 123 -40 7 11 13 22 13 25 0 4 -42 28 -92 55 -51 26 -108 57 -126
67 l-32 20 75 143 76 144 -28 15 -29 14 -35 -66z"/>
<path d="M6428 1295 c-25 -14 -26 -20 -32 -107 -12 -199 -17 -338 -12 -338 3
0 17 5 31 12 22 10 25 17 25 65 l0 54 115 55 114 56 44 -32 c39 -28 47 -30 70
-19 15 7 27 16 27 20 0 7 -331 241 -348 246 -4 1 -19 -4 -34 -12z m140 -129
l54 -40 -87 -44 c-48 -24 -88 -42 -90 -40 -2 2 -1 49 2 105 l6 102 31 -21 c17
-12 55 -40 84 -62z"/>
<path d="M3395 1167 c-49 -132 -125 -341 -125 -343 0 -1 14 -7 30 -13 23 -8
32 -7 35 2 49 132 125 341 125 343 0 1 -14 7 -30 13 -23 8 -32 7 -35 -2z"/>
<path d="M5988 1108 c-9 -7 -35 -73 -59 -145 -24 -73 -46 -133 -49 -133 -3 0
-59 41 -124 90 -66 50 -124 90 -130 90 -6 0 -17 -4 -25 -9 -12 -8 -9 -27 18
-123 75 -263 70 -250 94 -242 12 3 24 8 26 10 3 3 -26 114 -63 236 l-15 47
116 -90 c63 -49 119 -89 123 -89 5 0 27 57 50 128 24 70 45 130 49 134 3 4 23
-55 44 -132 l39 -138 29 10 c21 7 28 15 25 27 -3 9 -26 89 -52 179 -49 168
-57 180 -96 150z"/>
<path d="M3715 1038 c-3 -13 -21 -95 -40 -183 -35 -164 -35 -174 7 -175 19 0
20 2 48 140 11 58 23 113 26 123 4 13 40 -30 132 -158 118 -162 146 -194 160
-180 6 5 81 341 82 361 0 7 -13 14 -30 16 -16 3 -30 2 -30 -1 0 -3 -13 -69
-29 -145 -25 -126 -30 -137 -41 -116 -17 32 -231 323 -244 332 -20 14 -36 8
-41 -14z"/>
<path d="M4760 894 c0 -36 0 -36 -25 -20 -54 36 -89 4 -55 -51 l18 -30 -32 1
c-29 1 -31 -1 -31 -34 0 -32 3 -35 33 -38 31 -3 32 -4 17 -25 -19 -28 -19 -66
0 -73 8 -4 26 1 40 10 32 21 32 21 38 -13 11 -53 77 -49 77 4 0 23 1 23 30 8
17 -8 37 -12 45 -9 19 7 19 50 0 70 -22 22 -19 26 20 26 32 0 35 2 35 30 0 23
-6 33 -22 39 -13 5 -29 6 -35 4 -18 -7 -16 12 2 27 20 17 19 59 -1 67 -9 3
-29 -2 -45 -11 l-29 -17 0 35 c0 35 -1 36 -40 36 -39 0 -40 -1 -40 -36z"/>
</g>
</svg>
